<svg width="30" height="31" viewBox="0 0 30 31" fill="none" xmlns="http://www.w3.org/2000/svg">
<path fill-rule="evenodd" clip-rule="evenodd" d="M14.7386 30.0833C22.9637 30.0833 29.6314 23.4156 29.6314 15.1905C29.6314 6.96537 22.9637 0.297607 14.7386 0.297607C6.51346 0.297607 -0.154297 6.96537 -0.154297 15.1905C-0.154297 23.4156 6.51346 30.0833 14.7386 30.0833ZM11.1439 15.046C11.1439 13.1482 12.6927 11.5994 14.5905 11.5994C16.4883 11.5994 18.0371 13.1482 18.0371 15.046C18.0371 16.9438 16.4883 18.4925 14.5905 18.4925C12.6927 18.4925 11.1439 16.9438 11.1439 15.046ZM24.928 14.5239C24.9278 14.6977 24.9276 14.8718 24.9276 15.046C24.9276 15.2408 24.9279 15.4353 24.9282 15.6297C24.93 16.8595 24.9318 18.082 24.8604 19.3121C24.7802 20.9669 24.4053 22.4329 23.1927 23.6456C21.9826 24.8556 20.514 25.2331 18.8593 25.3132C17.6085 25.3836 16.3657 25.3822 15.1152 25.3809C14.9413 25.3807 14.7673 25.3805 14.5931 25.3805C14.4192 25.3805 14.2455 25.3807 14.072 25.3809C12.8231 25.3822 11.58 25.3836 10.3269 25.3132C8.67214 25.2331 7.20613 24.8582 5.9935 23.6456C4.78345 22.4355 4.40596 20.9669 4.32581 19.3121C4.25543 18.0613 4.25681 16.8165 4.2582 15.5671C4.25839 15.3935 4.25858 15.2198 4.25858 15.046C4.25858 14.8721 4.25839 14.6984 4.2582 14.5248C4.25681 13.2759 4.25543 12.0328 4.32581 10.7798C4.40596 9.12502 4.78087 7.65901 5.9935 6.44638C7.20354 5.23633 8.67214 4.85884 10.3269 4.77869C11.5777 4.70832 12.8204 4.70969 14.071 4.71108C14.2449 4.71127 14.4189 4.71146 14.5931 4.71146C14.7669 4.71146 14.9406 4.71127 15.1142 4.71108C16.3631 4.70969 17.6062 4.70832 18.8593 4.77869C20.514 4.85884 21.98 5.23375 23.1927 6.44638C24.4027 7.65642 24.7802 9.12502 24.8604 10.7798C24.9307 12.0305 24.9294 13.2733 24.928 14.5239ZM9.28751 15.046C9.28751 17.9806 11.6559 20.349 14.5905 20.349C17.5251 20.349 19.8935 17.9806 19.8935 15.046C19.8935 12.1113 17.5251 9.74297 14.5905 9.74297C11.6559 9.74297 9.28751 12.1113 9.28751 15.046ZM18.8722 9.52578C18.8722 10.211 19.4255 10.7643 20.1107 10.7643C20.2734 10.7645 20.4345 10.7326 20.5849 10.6704C20.7352 10.6082 20.8718 10.517 20.9869 10.402C21.1019 10.2869 21.1931 10.1503 21.2553 9.99997C21.3175 9.84962 21.3494 9.68848 21.3492 9.52578C21.3492 8.84061 20.7959 8.2873 20.1107 8.2873C19.4255 8.2873 18.8722 8.84061 18.8722 9.52578Z" fill="white"/>
</svg>
