<svg width="30" height="31" viewBox="0 0 30 31" fill="none" xmlns="http://www.w3.org/2000/svg">
<path fill-rule="evenodd" clip-rule="evenodd" d="M14.7895 30.2979C23.0146 30.2979 29.6823 23.6302 29.6823 15.4051C29.6823 7.17997 23.0146 0.512207 14.7895 0.512207C6.56437 0.512207 -0.103394 7.17997 -0.103394 15.4051C-0.103394 23.6302 6.56437 30.2979 14.7895 30.2979ZM7.50786 7.13135H22.0698C23.0709 7.13135 23.89 7.96907 23.89 8.99296V20.1626C23.89 21.1865 23.0709 22.0242 22.0698 22.0242H7.50786C6.50673 22.0242 5.68762 21.1865 5.68762 20.1626L5.69672 8.99296C5.69672 7.96907 6.50673 7.13135 7.50786 7.13135ZM15.2712 15.2014L21.7057 11.0873C21.797 11.0349 21.8769 10.9641 21.9406 10.8792C22.0044 10.7943 22.0506 10.6971 22.0765 10.5934C22.1024 10.4897 22.1075 10.3817 22.0915 10.2759C22.0754 10.1701 22.0385 10.0688 21.983 9.97803C21.9276 9.88726 21.8547 9.80895 21.7688 9.74783C21.6828 9.68672 21.5857 9.64406 21.4832 9.62246C21.3807 9.60085 21.275 9.60074 21.1724 9.62213C21.0699 9.64352 20.9727 9.68597 20.8866 9.74691L14.7888 13.647L8.69102 9.74691C8.60498 9.68597 8.50774 9.64352 8.4052 9.62213C8.30265 9.60074 8.19693 9.60085 8.09443 9.62246C7.99193 9.64406 7.89478 9.68672 7.80886 9.74783C7.72294 9.80895 7.65005 9.88726 7.59458 9.97803C7.53911 10.0688 7.50223 10.1701 7.48616 10.2759C7.47009 10.3817 7.47518 10.4897 7.5011 10.5934C7.52703 10.6971 7.57326 10.7943 7.637 10.8792C7.70073 10.9641 7.78065 11.0349 7.87191 11.0873L14.3064 15.2014C14.5977 15.3876 14.9799 15.3876 15.2712 15.2014Z" fill="white"/>
</svg>
