<svg width="30" height="31" viewBox="0 0 30 31" fill="none" xmlns="http://www.w3.org/2000/svg">
<path d="M14.8421 0.726074C6.61776 0.726074 -0.0507812 7.39462 -0.0507812 15.6189C-0.0507812 23.8432 6.61776 30.5118 14.8421 30.5118C23.0664 30.5118 29.7349 23.8432 29.7349 15.6189C29.7349 7.39462 23.0664 0.726074 14.8421 0.726074ZM21.9993 11.9522C22.0093 12.1085 22.0093 12.2714 22.0093 12.4309C22.0093 17.311 18.2927 22.9324 11.5012 22.9324C9.40685 22.9324 7.46546 22.324 5.8299 21.2769C6.12909 21.3101 6.41498 21.3234 6.72082 21.3234C8.44945 21.3234 10.0385 20.7384 11.305 19.7477C9.68277 19.7145 8.3198 18.6507 7.8544 17.188C8.42286 17.2711 8.9348 17.2711 9.51987 17.1215C8.68457 16.9518 7.93377 16.4982 7.39504 15.8376C6.85631 15.1771 6.56287 14.3504 6.56457 13.498V13.4515C7.05324 13.7274 7.62835 13.8969 8.23005 13.9202C7.72423 13.5831 7.30941 13.1264 7.02237 12.5906C6.73532 12.0548 6.58493 11.4564 6.58452 10.8486C6.58452 10.1604 6.76403 9.53214 7.08649 8.98696C8.01364 10.1283 9.17059 11.0618 10.4821 11.7267C11.7937 12.3917 13.2305 12.7732 14.6991 12.8465C14.1772 10.3366 16.0521 8.30547 18.306 8.30547C19.3698 8.30547 20.3272 8.75093 21.002 9.46898C21.8364 9.31274 22.6342 9.00025 23.3456 8.58139C23.0697 9.43574 22.4913 10.1571 21.7234 10.6125C22.468 10.5328 23.1861 10.3266 23.8509 10.0374C23.349 10.7754 22.7207 11.4303 21.9993 11.9522Z" fill="white"/>
</svg>
